<?xml version="1.0" standalone="no"?>
<!DOCTYPE svg PUBLIC "-//W3C//DTD SVG 20010904//EN"
 "http://www.w3.org/TR/2001/REC-SVG-20010904/DTD/svg10.dtd">
<svg version="1.0" xmlns="http://www.w3.org/2000/svg"
 width="321.000000pt" height="321.000000pt" viewBox="0 0 321.000000 321.000000"
 preserveAspectRatio="xMidYMid meet">
<metadata>
Created by potrace 1.14, written by Peter Selinger 2001-2017
</metadata>
<g transform="translate(0.000000,321.000000) scale(0.100000,-0.100000)"
fill="#000000" stroke="none">
<path d="M1404 3184 c-38 -7 -104 -22 -145 -34 -41 -12 -75 -22 -76 -22 -10 3
-185 -91 -249 -133 -71 -48 -202 -166 -260 -236 -101 -122 -216 -359 -238
-490 -3 -19 -8 -45 -11 -59 -2 -13 -7 -42 -11 -64 -4 -29 -8 -1977 -5 -2120 1
-17 7 -18 86 -12 566 42 1017 466 1101 1036 4 25 7 519 8 1098 l1 1053 -65 -2
c-36 -2 -97 -8 -136 -15z"/>
<path d="M2738 1205 c-2 -2 -34 -5 -73 -8 -242 -20 -512 -149 -699 -333 -211
-208 -342 -493 -359 -781 -4 -85 -13 -80 109 -69 73 7 103 11 132 20 9 3 31 8
49 11 45 7 180 58 255 96 131 66 315 217 393 324 17 22 32 42 35 45 17 15 74
116 109 190 63 136 95 254 107 395 3 39 7 75 9 82 2 7 -1 16 -8 20 -11 7 -54
13 -59 8z"/>
</g>
</svg>
